<svg version="1.1" id="Layer_1" xmlns="http://www.w3.org/2000/svg" xmlns:xlink="http://www.w3.org/1999/xlink" x="0px" y="0px"
	 width="100%" viewBox="0 0 2756 2756" enable-background="new 0 0 2756 2756" xml:space="preserve">
<path fill="#FFC928" opacity="1.000000" stroke="none" 
	d="
M1520.000000,2.000000 
	C1932.555786,2.000000 2345.111572,2.000000 2758.000000,2.000000 
	C2758.000000,622.056030 2758.000000,1242.112183 2757.070801,1862.951172 
	C2712.572998,1863.734009 2669.004150,1863.734009 2624.746338,1863.734009 
	C2624.489258,1867.958862 2624.139404,1871.200439 2624.118164,1874.444214 
	C2623.923096,1904.183594 2620.996094,1933.708130 2615.405762,1962.854736 
	C2589.191406,2099.523926 2522.127930,2212.084229 2413.539551,2299.071777 
	C2321.200928,2373.042236 2215.142578,2412.085205 2096.985352,2417.540039 
	C2050.215820,2419.698975 2003.753662,2415.723389 1957.864746,2406.186035 
	C1831.935547,2380.012207 1726.916504,2318.420898 1645.384155,2218.716797 
	C1561.376831,2115.986084 1520.694702,1996.897827 1520.574707,1864.852295 
	C1520.015137,1248.895264 1520.328735,632.937439 1520.315186,16.979876 
	C1520.315063,11.986582 1520.109619,6.993291 1520.000000,2.000000 
z"/>
<path fill="#364777" opacity="1.000000" stroke="none" 
	d="
M1519.062744,2.000000 
	C1520.109619,6.993291 1520.315063,11.986582 1520.315186,16.979876 
	C1520.328735,632.937439 1520.015137,1248.895264 1520.574707,1864.852295 
	C1520.694702,1996.897827 1561.376831,2115.986084 1645.384155,2218.716797 
	C1726.916504,2318.420898 1831.935547,2380.012207 1957.864746,2406.186035 
	C2003.753662,2415.723389 2050.215820,2419.698975 2096.985352,2417.540039 
	C2215.142578,2412.085205 2321.200928,2373.042236 2413.539551,2299.071777 
	C2522.127930,2212.084229 2589.191406,2099.523926 2615.405762,1962.854736 
	C2620.996094,1933.708130 2623.923096,1904.183594 2624.118164,1874.444214 
	C2624.139404,1871.200439 2624.489258,1867.958862 2624.746338,1863.734009 
	C2669.004150,1863.734009 2712.572998,1863.734009 2757.070801,1863.866943 
	C2758.000000,2161.877686 2758.000000,2459.755371 2758.000000,2758.000000 
	C2345.958252,2758.000000 1933.916504,2758.000000 1520.981323,2757.063965 
	C1520.168457,2710.324463 1515.511597,2664.993652 1506.193359,2620.161865 
	C1478.011108,2484.572510 1415.056152,2367.420410 1316.381470,2270.498535 
	C1194.399536,2150.683350 1047.410400,2084.915771 876.517639,2073.427979 
	C807.510193,2068.789307 739.288574,2074.489746 672.246460,2091.319580 
	C497.085541,2135.291260 359.124756,2232.755859 259.605347,2383.226074 
	C184.659439,2496.541992 148.231583,2622.065186 148.000000,2758.000000 
	C99.371719,2758.000000 50.743431,2758.000000 2.000000,2758.000000 
	C2.000000,2437.291504 2.000000,2116.583008 2.898374,1795.229980 
	C21.786943,1794.562134 39.777134,1794.535522 57.767334,1794.516479 
	C192.059036,1794.374756 326.350739,1794.143921 460.642456,1794.131836 
	C528.272400,1794.125854 594.873840,1785.878174 660.437134,1769.541992 
	C897.076111,1710.579590 1097.883789,1546.665039 1203.880005,1325.810059 
	C1263.706299,1201.155273 1290.130249,1069.590210 1284.348389,931.480713 
	C1282.168335,879.411011 1275.221802,827.994324 1263.024780,777.353516 
	C1225.137207,620.048706 1148.048706,484.895294 1031.521240,372.758789 
	C920.422729,265.846649 789.234741,195.556198 638.682922,161.707642 
	C582.260925,149.022293 525.105957,142.669769 467.294464,142.042236 
	C464.756073,142.014679 462.222107,141.580170 458.782898,141.247986 
	C458.782898,137.068420 458.782959,133.465500 458.782867,129.862595 
	C458.781860,90.873825 458.801422,51.885029 458.745941,12.896338 
	C458.740753,9.263878 458.259979,5.632096 458.000000,2.000000 
	C811.375122,2.000000 1164.750244,2.000000 1519.062744,2.000000 
z"/>
<path fill="#FFC928" opacity="1.000000" stroke="none" 
	d="
M457.062683,2.000000 
	C458.259979,5.632096 458.740753,9.263878 458.745941,12.896338 
	C458.801422,51.885029 458.781860,90.873825 458.782867,129.862595 
	C458.782959,133.465500 458.782898,137.068420 458.782898,141.247986 
	C462.222107,141.580170 464.756073,142.014679 467.294464,142.042236 
	C525.105957,142.669769 582.260925,149.022293 638.682922,161.707642 
	C789.234741,195.556198 920.422729,265.846649 1031.521240,372.758789 
	C1148.048706,484.895294 1225.137207,620.048706 1263.024780,777.353516 
	C1275.221802,827.994324 1282.168335,879.411011 1284.348389,931.480713 
	C1290.130249,1069.590210 1263.706299,1201.155273 1203.880005,1325.810059 
	C1097.883789,1546.665039 897.076111,1710.579590 660.437134,1769.541992 
	C594.873840,1785.878174 528.272400,1794.125854 460.642456,1794.131836 
	C326.350739,1794.143921 192.059036,1794.374756 57.767334,1794.516479 
	C39.777134,1794.535522 21.786943,1794.562134 2.898374,1794.292603 
	C2.000000,1196.899170 2.000000,599.798340 2.000000,2.000000 
	C153.374405,2.000000 304.749878,2.000000 457.062683,2.000000 
z"/>
<path fill="#FFC928" opacity="1.000000" stroke="none" 
	d="
M148.937317,2758.000000 
	C148.231583,2622.065186 184.659439,2496.541992 259.605347,2383.226074 
	C359.124756,2232.755859 497.085541,2135.291260 672.246460,2091.319580 
	C739.288574,2074.489746 807.510193,2068.789307 876.517639,2073.427979 
	C1047.410400,2084.915771 1194.399536,2150.683350 1316.381470,2270.498535 
	C1415.056152,2367.420410 1478.011108,2484.572510 1506.193359,2620.161865 
	C1515.511597,2664.993652 1520.168457,2710.324463 1520.043945,2757.063965 
	C1063.291504,2758.000000 606.583069,2758.000000 148.937317,2758.000000 
z"/>
</svg>